<?xml version="1.0" encoding="UTF-8" standalone="no"?>
<!-- Created with Inkscape (http://www.inkscape.org/) -->

<svg
   xmlns:dc="http://purl.org/dc/elements/1.1/"
   xmlns:cc="http://creativecommons.org/ns#"
   xmlns:rdf="http://www.w3.org/1999/02/22-rdf-syntax-ns#"
   xmlns:svg="http://www.w3.org/2000/svg"
   xmlns="http://www.w3.org/2000/svg"
   xmlns:sodipodi="http://sodipodi.sourceforge.net/DTD/sodipodi-0.dtd"
   xmlns:inkscape="http://www.inkscape.org/namespaces/inkscape"
   width="200mm"
   height="200mm"
   viewBox="0 0 710 710"
   id="svg2"
   version="1.1"
   inkscape:version="0.91 r13725"
   sodipodi:docname="chef-hat-inverted.svg">
  <defs
     id="defs4" />
  <sodipodi:namedview
     id="base"
     pagecolor="#ffffff"
     bordercolor="#666666"
     borderopacity="1.0"
     inkscape:pageopacity="0.0"
     inkscape:pageshadow="2"
     inkscape:zoom="0.5"
     inkscape:cx="783.60184"
     inkscape:cy="69.784305"
     inkscape:document-units="px"
     inkscape:current-layer="svg2"
     showgrid="false"
     inkscape:window-width="1920"
     inkscape:window-height="983"
     inkscape:window-x="0"
     inkscape:window-y="27"
     inkscape:window-maximized="1"
     showguides="true"
     inkscape:guide-bbox="true">
    <sodipodi:guide
       position="362.68377,568.07098"
       orientation="1,0"
       id="guide4137" />
  </sodipodi:namedview>
  <metadata
     id="metadata7">
    <rdf:RDF>
      <cc:Work
         rdf:about="">
        <dc:format>image/svg+xml</dc:format>
        <dc:type
           rdf:resource="http://purl.org/dc/dcmitype/StillImage" />
        <dc:title />
      </cc:Work>
    </rdf:RDF>
  </metadata>
  <path
     style="color:#000000;font-style:normal;font-variant:normal;font-weight:normal;font-stretch:normal;font-size:medium;line-height:normal;font-family:sans-serif;text-indent:0;text-align:start;text-decoration:none;text-decoration-line:none;text-decoration-style:solid;text-decoration-color:#000000;letter-spacing:normal;word-spacing:normal;text-transform:none;direction:ltr;block-progression:tb;writing-mode:lr-tb;baseline-shift:baseline;text-anchor:start;white-space:normal;clip-rule:nonzero;display:inline;overflow:visible;visibility:visible;opacity:1;isolation:auto;mix-blend-mode:normal;color-interpolation:sRGB;color-interpolation-filters:linearRGB;solid-color:#000000;solid-opacity:1;fill:#000000;fill-opacity:1;fill-rule:nonzero;stroke:none;stroke-width:20;stroke-linecap:butt;stroke-linejoin:round;stroke-miterlimit:4;stroke-dasharray:none;stroke-dashoffset:0;stroke-opacity:1;color-rendering:auto;image-rendering:auto;shape-rendering:auto;text-rendering:auto;enable-background:accumulate"
     d="m 363,27.035156 c 59.21338,-1e-6 112.81543,8.594388 150.73828,22.017578 18.96144,6.711596 33.96424,14.68132 43.61524,22.757813 9.65099,8.076494 13.54101,15.51978 13.54101,22.351562 0,6.831781 -3.89002,14.275071 -13.54101,22.351561 -9.651,8.07649 -24.6538,16.04427 -43.61524,22.75586 -37.92285,13.4232 -91.5249,22.01758 -150.73828,22.01758 -59.21338,0 -112.81348,-8.59438 -150.73633,-22.01758 -18.96142,-6.71159 -33.96619,-14.67937 -43.61719,-22.75586 -9.65098,-8.07649 -13.54101,-15.51978 -13.54101,-22.351561 0,-6.831782 3.89003,-14.275068 13.54101,-22.351562 9.651,-8.076493 24.65577,-16.046217 43.61719,-22.757813 C 250.18652,35.629544 303.78662,27.035155 363,27.035156 Z M 155,131.14648 c 0.27206,0.23356 0.53438,0.47202 0.81055,0.70313 12.40111,10.37796 29.30765,19.02993 49.77734,26.27539 40.93938,14.49092 96.28578,23.16406 157.41211,23.16406 61.12632,0 116.47273,-8.67314 157.41211,-23.16406 20.4697,-7.24546 37.37623,-15.89743 49.77734,-26.27539 0.80186,133.1469 1.94732,198.10507 0.70508,334.3125 -5.62524,5.08172 -3.47058,4.05433 -13.54101,11.60156 -10.2762,7.70144 -24.65577,14.79632 -43.61719,21.50781 C 475.81346,512.69451 422.2129,521.28713 363,521.28711 c -59.2129,2e-5 -112.81352,-8.59261 -150.73633,-22.01563 -18.96139,-6.71149 -30.01558,-13.59663 -43.61719,-22.75781 -4.95201,-3.33536 -7.57052,-5.77036 -13.64648,-11.60156 z m 38.21484,57.00977 0,271 20,8.13086 0,-273.47461 z m 344.27735,0.70508 -19.99805,6.71875 0,272.41406 19.99805,-8.13281 z m -267.51563,20.4375 0,270.99805 20,2.47656 0,-270.64649 z m 184.75391,0 -19.99805,2.82812 0,270.64649 19.99805,-2.47656 z M 352,215.66016 l 0,271 20,0 0,-271 z M 155,487.83398 c 0.27264,0.23406 0,0 0.8125,0.70508 12.21319,10.5985 29.3077,22.34058 49.77734,29.58594 40.9393,14.49071 96.28434,23.16213 157.41016,23.16211 61.12582,2e-5 116.4708,-8.6714 157.41016,-23.16211 20.46967,-7.24536 37.37607,-19.67689 49.77734,-30.05469 0.27676,-0.2316 0.53986,-0.47102 0.8125,-0.70508 l 0,123.79688 -0.10547,0 c -2.4e-4,6.83173 -3.88983,14.27513 -13.54101,22.35156 -9.6512,8.07645 -24.65577,16.04631 -43.61719,22.75781 C 475.81346,669.69451 422.2129,678.28713 363,678.28711 c -59.2129,2e-5 -112.81352,-8.59261 -150.73633,-22.01563 -18.96139,-6.7115 -33.96597,-14.68135 -43.61719,-22.75781 -9.65121,-8.07644 -13.54069,-15.51979 -13.54101,-22.35156 l -0.10547,0 z"
     transform="scale(1.0018889,1.0018889)"
     id="path4135"
     inkscape:connector-curvature="0"
     sodipodi:nodetypes="ssssssssssssscssssccsssssccccccccccccccccccccccccccccssssscccsssssccc" />
</svg>
