<?xml version="1.0" encoding="UTF-8" standalone="no"?>
<!-- Created with Inkscape (http://www.inkscape.org/) -->

<svg
   xmlns:dc="http://purl.org/dc/elements/1.1/"
   xmlns:cc="http://creativecommons.org/ns#"
   xmlns:rdf="http://www.w3.org/1999/02/22-rdf-syntax-ns#"
   xmlns:svg="http://www.w3.org/2000/svg"
   xmlns="http://www.w3.org/2000/svg"
   xmlns:sodipodi="http://sodipodi.sourceforge.net/DTD/sodipodi-0.dtd"
   xmlns:inkscape="http://www.inkscape.org/namespaces/inkscape"
   width="200mm"
   height="200mm"
   viewBox="0 0 710 710"
   id="svg2"
   version="1.1"
   inkscape:version="0.91 r13725"
   sodipodi:docname="chef-hat-inverted.svg">
  <defs
     id="defs4" />
  <sodipodi:namedview
     id="base"
     pagecolor="#ffffff"
     bordercolor="#666666"
     borderopacity="1.0"
     inkscape:pageopacity="0.0"
     inkscape:pageshadow="2"
     inkscape:zoom="1"
     inkscape:cx="375.04778"
     inkscape:cy="425.55085"
     inkscape:document-units="px"
     inkscape:current-layer="svg2"
     showgrid="false"
     inkscape:window-width="1920"
     inkscape:window-height="983"
     inkscape:window-x="0"
     inkscape:window-y="27"
     inkscape:window-maximized="1" />
  <metadata
     id="metadata7">
    <rdf:RDF>
      <cc:Work
         rdf:about="">
        <dc:format>image/svg+xml</dc:format>
        <dc:type
           rdf:resource="http://purl.org/dc/dcmitype/StillImage" />
        <dc:title />
      </cc:Work>
    </rdf:RDF>
  </metadata>
  <path
     style="fill:#000000;fill-opacity:1;stroke:none;stroke-width:10;stroke-linecap:butt;stroke-linejoin:round;stroke-miterlimit:4;stroke-dasharray:none;stroke-opacity:1"
     d="m 441.85938,39.425781 c -12.07559,0.476871 -26.0005,26.868793 -31.31836,33.261719 23.87726,12.659246 44.60881,22.446194 68.13281,41.24414 20.1226,16.0799 22.62248,22.7722 52.00195,51.74024 C 501.57917,146.09835 470.99935,115.49308 435.33008,96.875 395.7878,76.235354 342.58633,46.686458 319.83203,43.162109 c -26.2561,-4.066732 -57.95311,25.81043 -72.32812,47.138672 -13.17018,19.540609 -25.86695,49.833489 -30.11133,58.031249 50.05034,6.50255 87.45499,16.32498 127.2207,51.11524 0,0 -53.03164,-28.35238 -79.11523,-33.16016 -40.62344,-7.39588 -104.22933,-19.4229 -150.36328,-7.64453 -15.02176,24.95036 -14.32848,43.05363 -34.314458,96.17969 16.07984,-4.82732 60.430378,-7.2567 91.312498,-3.3086 -35.45207,4.25276 -55.25082,3.11946 -87.160154,10.92578 -11.458367,2.80318 -26.57787,10.94142 -33.646484,29.79102 -4.044367,10.78498 -10.079441,21.9936 -13.712891,34.68945 -1.919314,6.70639 -3.590504,19.63345 3.248047,24.33008 13.783667,9.46644 66.844472,42.2587 98.107422,80.3418 19.30499,23.51642 45.96306,54.20166 56.17773,90.17773 0,0 23.01307,24.70864 52.51758,39.24414 3.20467,-38.98663 -3.59404,-76.03498 -25.40234,-111.21289 -22.78827,-36.75865 -39.08411,-53.65464 -60.23047,-96.2832 47.39245,75.09868 116.91967,114.83462 98.41406,213.09961 24.73722,10.33798 58.64235,18.95077 90.87891,23.55664 2.70158,-31.96818 6.09432,-58.62043 3.44531,-90.56836 -3.0957,-37.33521 -9.62583,-59.36695 -30.62695,-105.76172 20.74874,30.46158 38.14531,62.02092 43.14453,103.44727 3.76234,31.17695 0.90107,64.02491 -0.29102,94.17187 36.81591,2.60778 67.51461,0.94728 101.86914,-5.53516 0,0 -3.18574,-23.73423 -5.13476,-45.20507 -4.87558,-53.71043 -0.73833,-106.17054 14.22265,-158.52539 -9.53831,65.36285 -8.54619,104.80926 -1.71874,156.79492 2.54635,19.38845 5.09041,39.71801 5.83789,43.88867 31.63386,-8.77155 46.68402,-12.90594 72.98632,-27.27734 -0.14887,-38.37207 -0.58395,-63.91595 0.72852,-80.79493 3.89973,-50.15214 7.64319,-87.93488 47.5,-152.96289 -19.59922,42.62122 -30.98836,79.79203 -34.45313,150.08789 -0.69739,14.14931 -2.29054,40.89358 0.36914,75.28907 16.99469,-11.23561 34.2135,-30.901 40.99024,-41.42774 0.5727,-35.51692 -0.68537,-113.08655 17.82812,-156.14648 9.61604,-22.36563 24.49146,-47.07841 35.31055,-66.67188 27.05784,-49.00201 2.08083,-80.72728 -41.76172,-126.14844 C 584.89527,118.83253 591.66719,103.8643 578.06445,73.029297 543.51686,55.11853 485.77524,58.840639 445.53516,40.160156 444.33709,39.603985 443.10857,39.37645 441.85938,39.425781 Z M 561.12109,232.89648 c -33.92684,30.56677 -87.46769,26.57565 -121.57421,56.03711 -27.17267,23.47195 -36.96447,71.93432 -81.10547,60.38477 -32.86637,-8.59952 -71.67906,-56.21806 -135.28907,-58.52344 73.06509,-10.39697 100.04141,27.79446 136.97461,40.29492 30.37259,10.27995 47.96076,-35.77415 69.57813,-54.54296 29.1767,-25.33206 65.42904,-17.04735 131.41601,-43.6504 z m 50.38282,287.76172 c -11.75135,18.80701 -49.50796,50.98946 -104.56446,66.40821 -68.61928,19.21703 -137.30892,20.92289 -204.86328,3.70312 -52.77554,-13.45256 -91.71579,-38.03381 -106.06055,-53.58008 1.19659,19.30336 -0.4062,36.76245 -0.3789,60.51367 35.7282,42.9429 114.94689,75.79274 203.73242,75.80274 57.16136,-0.0198 107.87186,-12.77109 146.53516,-32.83789 35.67817,-18.51749 59.3149,-44.92522 67.92187,-72.16211 0.24083,-17.91575 -0.029,-17.46348 -2.32226,-47.84766 z"
     id="rect4327"
     inkscape:connector-curvature="0"
     sodipodi:nodetypes="scscsssccccccsssssccscccscsccscsccscsccssscsscsscssccsscccscc" />
</svg>
