<?xml version="1.0" standalone="no"?>
<!DOCTYPE svg PUBLIC "-//W3C//DTD SVG 20010904//EN"
 "http://www.w3.org/TR/2001/REC-SVG-20010904/DTD/svg10.dtd">
<svg version="1.0" xmlns="http://www.w3.org/2000/svg"
 width="700.000000pt" height="700.000000pt" viewBox="0 0 700.000000 700.000000"
 preserveAspectRatio="xMidYMid meet">
<metadata>
Created by potrace 1.11, written by Peter Selinger 2001-2013
</metadata>
<g transform="translate(0.000000,700.000000) scale(0.100000,-0.100000)"
fill="#000000" stroke="none">
<path d="M698 6985 c-2 -2 -21 -5 -43 -9 -124 -17 -272 -83 -364 -161 -139
-118 -243 -296 -268 -463 -10 -63 -10 -5632 0 -5700 25 -174 132 -358 277
-474 82 -66 233 -136 331 -154 32 -6 3079 -15 3079 -10 0 2 -21 11 -47 21
-213 80 -482 253 -657 424 -215 208 -348 402 -470 686 -29 67 -77 217 -92 290
-42 195 -49 268 -49 480 0 172 4 224 20 320 38 218 118 440 226 631 10 19 28
50 40 71 11 20 31 52 45 72 13 20 24 39 24 44 0 4 -235 6 -523 5 -288 -1 -528
1 -533 5 -7 4 -11 620 -12 1949 0 1069 -1 1950 -1 1960 -1 15 -41 16 -491 16
-269 0 -491 -2 -492 -3z"/>
<path d="M2502 5444 l-2 -1544 882 0 c816 -1 1072 -4 1203 -14 76 -7 238 -26
255 -31 8 -2 31 -7 50 -10 268 -45 585 -218 919 -502 l33 -29 -168 -166 c-93
-91 -220 -216 -283 -277 l-115 -111 -25 23 c-203 186 -383 274 -633 306 -67 9
-260 7 -308 -3 -14 -3 -50 -11 -80 -16 -172 -34 -370 -123 -519 -235 -164
-121 -314 -334 -384 -545 -66 -198 -71 -438 -14 -685 32 -135 163 -393 252
-492 243 -272 549 -409 897 -402 134 3 235 18 361 54 168 49 354 150 432 236
l37 42 269 -269 c148 -148 269 -274 269 -280 0 -14 -100 -103 -188 -167 -91
-67 -275 -175 -429 -251 l-128 -64 625 2 c344 2 634 6 645 9 11 3 42 10 70 17
116 26 272 121 363 219 81 90 147 214 178 341 18 72 19 176 19 2885 0 1546 -3
2834 -8 2863 -33 233 -200 456 -421 561 -170 81 23 74 -2131 77 l-1921 2 -2
-1544z"/>
</g>
</svg>
