<?xml version="1.0" standalone="no"?>
<!DOCTYPE svg PUBLIC "-//W3C//DTD SVG 20010904//EN"
 "http://www.w3.org/TR/2001/REC-SVG-20010904/DTD/svg10.dtd">
<svg version="1.0" xmlns="http://www.w3.org/2000/svg"
 width="700.000000pt" height="700.000000pt" viewBox="0 0 700.000000 700.000000"
 preserveAspectRatio="xMidYMid meet">
<metadata>
Created by potrace 1.11, written by Peter Selinger 2001-2013
</metadata>
<g transform="translate(0.000000,700.000000) scale(0.100000,-0.100000)"
fill="#000000" stroke="none">
<path d="M615 6985 c-246 -54 -437 -204 -538 -420 -37 -79 -55 -135 -67 -205
-6 -44 -10 -990 -9 -2875 1 -2371 3 -2820 15 -2875 66 -309 306 -541 619 -600
30 -5 664 -9 1565 -9 l1515 -1 -65 28 c-489 209 -855 554 -1069 1004 -83 173
-146 372 -167 523 -3 28 -8 59 -10 70 -9 43 -18 194 -18 285 0 97 11 267 18
278 2 4 7 30 10 57 4 28 12 68 18 90 5 22 12 50 14 63 6 31 61 193 84 247 11
25 19 46 19 48 -2 7 109 211 145 267 23 36 45 72 48 82 6 15 -34 16 -524 15
-291 -1 -533 0 -537 3 -3 3 -6 889 -6 1970 l0 1965 -500 1 c-381 2 -514 -1
-560 -11z"/>
<path d="M2500 6093 c-1 -500 -1 -1195 -2 -1546 0 -351 1 -640 3 -642 2 -2
470 -5 1039 -8 569 -2 1051 -7 1070 -10 19 -3 62 -8 95 -12 33 -3 71 -8 85
-10 14 -3 41 -7 60 -10 311 -50 642 -227 972 -518 l27 -24 -147 -145 c-130
-129 -211 -208 -376 -368 l-46 -44 -53 50 c-147 143 -334 234 -577 281 -38 7
-280 7 -320 0 -112 -20 -153 -30 -225 -53 -447 -143 -748 -484 -820 -929 -70
-426 128 -925 464 -1175 151 -111 348 -195 506 -216 28 -3 59 -8 70 -10 37 -8
222 -4 292 6 265 37 528 154 651 289 l33 36 269 -272 c149 -150 270 -276 270
-280 0 -5 -15 -22 -33 -38 -148 -135 -333 -255 -597 -387 l-115 -57 635 2
c682 3 654 1 800 56 102 38 228 134 304 231 79 100 131 216 156 345 6 31 9
1113 9 2870 -1 3035 2 2873 -51 3005 -98 246 -288 409 -548 471 -71 17 -186
18 -1987 19 l-1913 0 0 -907z"/>
</g>
</svg>
